<svg xmlns="http://www.w3.org/2000/svg" width="134" height="103.66" viewBox="0 0 134 103.66">
  <path id="quote-open" d="M13.325-85.3c-22.394,15.531-37.2,39.73-37.2,66.819,0,23.477,15.17,36.841,32.146,36.841A28.83,28.83,0,0,0,36.8-10.175c0-15.531-10.836-26.005-24.561-26.005-2.889,0-6.14.361-7.224,1.084C8.269-48.1,21.632-63.27,33.19-69.41Zm73.321,0C64.252-69.771,49.8-45.572,49.8-18.483c0,23.477,14.809,36.841,31.784,36.841a28.594,28.594,0,0,0,28.534-28.534c0-15.531-10.836-26.005-24.2-26.005-2.889,0-6.14.361-7.224,1.084,2.889-13,16.615-28.172,28.173-34.313Z" transform="translate(23.877 85.302)" fill="#fff"/>
</svg>
