<?xml version="1.0" encoding="UTF-8"?>
<svg id="Layer_2" data-name="Layer 2" xmlns="http://www.w3.org/2000/svg" viewBox="0 0 1600 106.14">
  <defs>
    <style>
      .cls-1 {
        fill: none;
      }

      .cls-2 {
        fill: #1e1e29;
      }
    </style>
  </defs>
  <g id="Layer_1-2" data-name="Layer 1">
    <g>
      <path class="cls-1" d="m19.04,28.89C-.02,24.97,0,15.19,0,4.14v102h800.5c-266.18,0-526.22-26.31-777.66-76.45-1.76-.37-3.03-.64-3.79-.8Z"/>
      <path class="cls-1" d="m1580.73,29.17c-252.24,50.48-513.14,76.97-780.23,76.97h799.5V4.14c0,10.95-.08,21.02-19.27,25.03Z"/>
      <path class="cls-2" d="m0,4.14C0,15.19-.02,24.97,19.04,28.89c.76.16,2.03.43,3.79.8,251.44,50.14,511.48,76.45,777.66,76.45s527.99-26.49,780.23-76.97c19.19-4.01,19.27-14.08,19.27-25.03V0H0v4.14Z"/>
    </g>
  </g>
</svg>