<svg xmlns="http://www.w3.org/2000/svg" width="104.838" height="40" viewBox="0 0 104.838 40"><g transform="translate(6.187)"><rect width="104.587" height="40" transform="translate(-5.936)" fill="#f4f6f8" opacity="0"/><g transform="translate(-56.187 -40.378)"><path d="M52.586,52.6a8.39,8.39,0,0,1,5.33-2.257c.672,0,1.347,0,2.019,0-.034.721,0,1.444-.02,2.164a7.952,7.952,0,0,1-1.694,4.45A8.346,8.346,0,0,1,52.8,60.092a21.153,21.153,0,0,1-2.794.081c.016-.793-.034-1.589.028-2.38A8.226,8.226,0,0,1,52.586,52.6Z" transform="translate(-0.004 0)" fill="#2d2e3a"/><path d="M80.869,50.342c.721.008,1.442,0,2.164,0a8.373,8.373,0,0,1,4.928,2.015,8.2,8.2,0,0,1,2.78,5.074c.115.909.042,1.827.087,2.74-.63,0-1.258,0-1.888,0a8.486,8.486,0,0,1-4.367-1.387,7.325,7.325,0,0,1-1.66-1.456,7.977,7.977,0,0,1-1.9-3.931A19.347,19.347,0,0,1,80.869,50.342Z" transform="translate(-20.315 0)" fill="#2d2e3a"/><path d="M50.007,80.789c.64.036,1.282-.03,1.92.04a8.305,8.305,0,0,1,6.8,3.929,7.874,7.874,0,0,1,1.191,4.4c0,.5.006,1.008-.008,1.511a18.663,18.663,0,0,1-3.041-.144,8.292,8.292,0,0,1-5.512-3.6A8.044,8.044,0,0,1,50,82.208C50,81.734,50,81.262,50.007,80.789Z" transform="translate(0 -20.037)" fill="#2d2e3a"/><path d="M87.426,81.017a15.35,15.35,0,0,1,3.348-.2l.049.048a17.863,17.863,0,0,1-.154,3.168,8.242,8.242,0,0,1-4.082,5.582,8.619,8.619,0,0,1-4.272,1.062c-.474,0-.951-.008-1.425.006a23.19,23.19,0,0,1,.063-2.623,8.191,8.191,0,0,1,3.006-5.391A8.512,8.512,0,0,1,87.426,81.017Z" transform="translate(-20.323 -20.052)" fill="#2d2e3a"/><path d="M129.461,71.445a1.228,1.228,0,0,1-.369.9,1.2,1.2,0,0,1-.882.349,1.169,1.169,0,0,1-.861-.349,1.265,1.265,0,0,1-.349-.9V58.772a1.2,1.2,0,0,1,.349-.882,1.227,1.227,0,0,1,.9-.369,1.1,1.1,0,0,1,.861.369,1.2,1.2,0,0,1,.348.882Z" transform="translate(-50.674 -4.725)" fill="#2d2e3a"/><path d="M147.415,69.816a1.161,1.161,0,0,1,.882.369,1.2,1.2,0,0,1,.348.882v5.209a4.791,4.791,0,0,1-1.21,3.445,5.416,5.416,0,0,1-6.972,0,4.841,4.841,0,0,1-1.189-3.445V71.067a1.2,1.2,0,0,1,.349-.882,1.238,1.238,0,0,1,1.764,0,1.2,1.2,0,0,1,.349.882v5.209a2.719,2.719,0,0,0,.554,1.866,2.162,2.162,0,0,0,1.661.595,2.191,2.191,0,0,0,1.682-.595,2.718,2.718,0,0,0,.554-1.866V71.067a1.2,1.2,0,0,1,.349-.882A1.16,1.16,0,0,1,147.415,69.816Z" transform="translate(-58.751 -12.816)" fill="#2d2e3a"/><path d="M177.239,69.217a3.248,3.248,0,0,1,2.42.8,3.835,3.835,0,0,1,1.025,2.03l-.348-.185.164-.328a4.49,4.49,0,0,1,.759-1,4.4,4.4,0,0,1,1.23-.923,3.46,3.46,0,0,1,1.641-.39,3.4,3.4,0,0,1,2.235.636,3.2,3.2,0,0,1,1.066,1.7,8.826,8.826,0,0,1,.287,2.338v5.25a1.265,1.265,0,0,1-.349.9,1.289,1.289,0,0,1-1.764,0,1.265,1.265,0,0,1-.349-.9v-5.25a4.11,4.11,0,0,0-.164-1.21,1.672,1.672,0,0,0-.595-.882,2,2,0,0,0-1.23-.328,2.57,2.57,0,0,0-1.333.328,2.172,2.172,0,0,0-.841.882,2.668,2.668,0,0,0-.267,1.21v5.25a1.266,1.266,0,0,1-.348.9,1.289,1.289,0,0,1-1.764,0,1.265,1.265,0,0,1-.349-.9v-5.25a4.111,4.111,0,0,0-.164-1.21,1.674,1.674,0,0,0-.595-.882,2,2,0,0,0-1.23-.328,2.571,2.571,0,0,0-1.333.328,2.174,2.174,0,0,0-.841.882,2.673,2.673,0,0,0-.266,1.21v5.25a1.265,1.265,0,0,1-.349.9,1.289,1.289,0,0,1-1.764,0,1.265,1.265,0,0,1-.349-.9V70.673a1.2,1.2,0,0,1,.349-.882,1.238,1.238,0,0,1,1.764,0,1.2,1.2,0,0,1,.349.882v.882l-.308-.062a4.889,4.889,0,0,1,1.313-1.5,4.025,4.025,0,0,1,1.046-.554A3.393,3.393,0,0,1,177.239,69.217Z" transform="translate(-79.944 -12.422)" fill="#2d2e3a"/><path d="M225.693,72.274a1.265,1.265,0,0,1-.349.9,1.289,1.289,0,0,1-1.764,0,1.266,1.266,0,0,1-.348-.9V63.8a1.2,1.2,0,0,1,.348-.882,1.238,1.238,0,0,1,1.764,0,1.2,1.2,0,0,1,.349.882Zm-1.251-11.053a1.63,1.63,0,0,1-.984-.226.964.964,0,0,1-.287-.8v-.39a.9.9,0,0,1,.307-.8,1.747,1.747,0,0,1,.984-.226,1.673,1.673,0,0,1,1,.226.963.963,0,0,1,.287.8v.39a.956.956,0,0,1-.308.82A1.87,1.87,0,0,1,224.442,61.221Z" transform="translate(-113.964 -5.554)" fill="#2d2e3a"/><path d="M240.811,69.217a3.565,3.565,0,0,1,2.3.636,3.152,3.152,0,0,1,1.087,1.7,8.271,8.271,0,0,1,.308,2.338v5.25a1.265,1.265,0,0,1-.349.9,1.289,1.289,0,0,1-1.764,0,1.265,1.265,0,0,1-.349-.9v-5.25a3.686,3.686,0,0,0-.184-1.21,1.631,1.631,0,0,0-.615-.882,2.172,2.172,0,0,0-1.292-.328,2.769,2.769,0,0,0-1.395.328,2.32,2.32,0,0,0-.861.882,2.511,2.511,0,0,0-.287,1.21v5.25a1.265,1.265,0,0,1-.348.9,1.289,1.289,0,0,1-1.764,0,1.265,1.265,0,0,1-.349-.9V70.673a1.2,1.2,0,0,1,.349-.882,1.238,1.238,0,0,1,1.764,0,1.2,1.2,0,0,1,.348.882v.882l-.307-.062a3.8,3.8,0,0,1,.533-.738,4.877,4.877,0,0,1,.82-.759,3.949,3.949,0,0,1,1.066-.554A3.614,3.614,0,0,1,240.811,69.217Z" transform="translate(-121.713 -12.422)" fill="#2d2e3a"/><path d="M277.032,74.917a5.763,5.763,0,0,1-.759,2.973,5.3,5.3,0,0,1-2.01,1.989,5.541,5.541,0,0,1-2.809.718,5.654,5.654,0,0,1-2.83-.718,5.5,5.5,0,0,1-2.01-1.989,5.888,5.888,0,0,1-.738-2.973,5.776,5.776,0,0,1,.738-2.953,5.451,5.451,0,0,1,2.01-2.01,5.532,5.532,0,0,1,2.83-.738,5.422,5.422,0,0,1,2.809.738,5.257,5.257,0,0,1,2.01,2.01A5.653,5.653,0,0,1,277.032,74.917Zm-2.461,0a3.6,3.6,0,0,0-.431-1.8,3.013,3.013,0,0,0-1.128-1.21,2.906,2.906,0,0,0-1.558-.431,3.011,3.011,0,0,0-1.579.431,3.211,3.211,0,0,0-1.128,1.21,3.741,3.741,0,0,0-.41,1.8,3.817,3.817,0,0,0,.41,1.8,3.253,3.253,0,0,0,1.128,1.189,3.011,3.011,0,0,0,1.579.431,2.906,2.906,0,0,0,1.558-.431,3.048,3.048,0,0,0,1.128-1.189A3.669,3.669,0,0,0,274.572,74.917Z" transform="translate(-142.069 -12.422)" fill="#2d2e3a"/><path d="M309.66,69.816a1.161,1.161,0,0,1,.882.369,1.2,1.2,0,0,1,.348.882v5.209a4.79,4.79,0,0,1-1.21,3.445,5.415,5.415,0,0,1-6.972,0,4.841,4.841,0,0,1-1.189-3.445V71.067a1.2,1.2,0,0,1,.349-.882,1.238,1.238,0,0,1,1.764,0,1.2,1.2,0,0,1,.349.882v5.209a2.717,2.717,0,0,0,.554,1.866,2.162,2.162,0,0,0,1.661.595,2.191,2.191,0,0,0,1.681-.595,2.717,2.717,0,0,0,.554-1.866V71.067a1.2,1.2,0,0,1,.348-.882A1.161,1.161,0,0,1,309.66,69.816Z" transform="translate(-165.525 -12.816)" fill="#2d2e3a"/><path d="M331.5,78.691a1.146,1.146,0,0,1-.185-.738.989.989,0,0,1,.533-.779,1.061,1.061,0,0,1,.7-.164,1.113,1.113,0,0,1,.718.369,4.838,4.838,0,0,0,1.251.923,3.652,3.652,0,0,0,1.64.328q.308-.021.677-.082a1.349,1.349,0,0,0,.636-.328,1.04,1.04,0,0,0,.287-.8.9.9,0,0,0-.308-.718,2.569,2.569,0,0,0-.82-.451q-.492-.185-1.107-.349-.636-.185-1.313-.41a5.8,5.8,0,0,1-1.21-.574,2.759,2.759,0,0,1-1.251-2.461,2.7,2.7,0,0,1,.574-1.743,3.765,3.765,0,0,1,1.476-1.107,4.907,4.907,0,0,1,1.928-.39,5.821,5.821,0,0,1,1.333.164,4.75,4.75,0,0,1,1.333.492,3.178,3.178,0,0,1,1.066.882,1.456,1.456,0,0,1,.267.738.881.881,0,0,1-.39.779,1.027,1.027,0,0,1-.718.226,1.133,1.133,0,0,1-.677-.287,2.408,2.408,0,0,0-.943-.718,3.227,3.227,0,0,0-2.01-.185,1.2,1.2,0,0,0-.615.308.917.917,0,0,0-.267.738.989.989,0,0,0,.308.759,2.574,2.574,0,0,0,.82.451q.533.164,1.128.328.615.164,1.251.39a4.951,4.951,0,0,1,1.169.595,2.792,2.792,0,0,1,.861.964,2.951,2.951,0,0,1,.328,1.476,2.7,2.7,0,0,1-.615,1.784,3.986,3.986,0,0,1-1.538,1.128,5.036,5.036,0,0,1-1.887.369,7.494,7.494,0,0,1-2.42-.41A4.254,4.254,0,0,1,331.5,78.691Z" transform="translate(-185.136 -12.422)" fill="#2d2e3a"/></g></g></svg>