<svg xmlns="http://www.w3.org/2000/svg" width="84.083" height="40" viewBox="0 0 84.083 40"><g transform="translate(0.522)"><rect width="84.083" height="40" transform="translate(-0.522)" fill="#f4f6f8" opacity="0"/><g transform="translate(-50.547 -40.589)"><path d="M133.192,72.133v14.72h-3.586v-6.06h-5.578v6.06h-3.586V72.133h3.586V77.9h5.578V72.133Z" transform="translate(-51.434 -15.798)" fill="#2d2e3a"/><path d="M175.982,68.185a2.236,2.236,0,0,1-1.552-.545,1.849,1.849,0,0,1-.587-1.384,1.806,1.806,0,0,1,.587-1.384,2.187,2.187,0,0,1,1.552-.566,2.085,2.085,0,0,1,1.51.566,1.777,1.777,0,0,1,.608,1.384,1.818,1.818,0,0,1-.608,1.384A2.13,2.13,0,0,1,175.982,68.185Zm1.782,1.216V81.1h-3.586V69.4Z" transform="translate(-90.671 -10.047)" fill="#2d2e3a"/><path d="M199.4,84.277v3.04h-1.824a4.5,4.5,0,0,1-3.04-.943,3.977,3.977,0,0,1-1.09-3.124V78.595h-1.426V75.617h1.426V72.765h3.586v2.852h2.348v2.977h-2.348v4.7a.983.983,0,0,0,.251.755,1.228,1.228,0,0,0,.839.231Z" transform="translate(-104.028 -16.263)" fill="#2d2e3a"/><path d="M233.271,88.714a9.16,9.16,0,0,1-.063,1.048h-8.115a2.507,2.507,0,0,0,.692,1.678,2.206,2.206,0,0,0,1.531.566,1.885,1.885,0,0,0,1.866-1.132H233a5.343,5.343,0,0,1-2.977,3.523,6.161,6.161,0,0,1-2.579.524,6.278,6.278,0,0,1-3.061-.734,5.222,5.222,0,0,1-2.1-2.1,6.475,6.475,0,0,1-.755-3.187,6.625,6.625,0,0,1,.734-3.187,5.221,5.221,0,0,1,2.1-2.1,6.32,6.32,0,0,1,3.082-.734,6.256,6.256,0,0,1,3.019.713,5.051,5.051,0,0,1,2.055,2.034A6.106,6.106,0,0,1,233.271,88.714Zm-3.669-.943a1.844,1.844,0,0,0-.629-1.468,2.519,2.519,0,0,0-3.1-.021,2.352,2.352,0,0,0-.755,1.489Z" transform="translate(-125.71 -23.699)" fill="#2d2e3a"/><path d="M267.084,88.9a6.622,6.622,0,0,1,.734-3.187,5.256,5.256,0,0,1,2.076-2.1,6.275,6.275,0,0,1,3.061-.734,5.757,5.757,0,0,1,3.669,1.153,5.42,5.42,0,0,1,1.95,3.25h-3.816a1.836,1.836,0,0,0-1.866-1.342,1.872,1.872,0,0,0-1.572.776,3.493,3.493,0,0,0-.587,2.181,3.588,3.588,0,0,0,.587,2.2,1.89,1.89,0,0,0,1.572.755,1.836,1.836,0,0,0,1.866-1.342h3.816a5.491,5.491,0,0,1-1.95,3.229,5.74,5.74,0,0,1-3.669,1.174,6.277,6.277,0,0,1-3.061-.734,5.256,5.256,0,0,1-2.076-2.1A6.623,6.623,0,0,1,267.084,88.9Z" transform="translate(-159.183 -23.699)" fill="#2d2e3a"/><path d="M321.669,72.819a4.147,4.147,0,0,1,3.229,1.342,5.182,5.182,0,0,1,1.216,3.648v6.836H322.55V78.292a2.568,2.568,0,0,0-.608-1.824,2.383,2.383,0,0,0-3.271,0,2.567,2.567,0,0,0-.608,1.824v6.353h-3.586V69.129h3.586v5.389a3.831,3.831,0,0,1,1.489-1.237A4.759,4.759,0,0,1,321.669,72.819Z" transform="translate(-194.006 -13.591)" fill="#2d2e3a"/><path d="M50.443,63.36V50.632h4.244v6.543A6.635,6.635,0,0,1,63.7,63.363v7.691H59.461V63.363a2.387,2.387,0,0,0-4.774,0v7.693H50.443V63.36Z" fill="#2d2e3a"/><path d="M84.443,54.876V50.632h4.243v4.244Z" transform="translate(-24.982)" fill="#2d2e3a"/></g></g></svg>