<svg xmlns="http://www.w3.org/2000/svg" width="38" height="38" viewBox="0 0 38 38"><g transform="translate(-55.789 11)"><rect width="38" height="38" rx="15" transform="translate(55.789 -11)" fill="#fff" opacity="0"/><path d="M14.487,4.481a5.861,5.861,0,0,1-1.676.46,2.933,2.933,0,0,0,1.283-1.615,5.843,5.843,0,0,1-1.854.708A2.92,2.92,0,0,0,7.269,6.7a8.285,8.285,0,0,1-6.013-3.05,2.922,2.922,0,0,0,.9,3.9A2.893,2.893,0,0,1,.837,7.177v.037a2.92,2.92,0,0,0,2.34,2.861,2.892,2.892,0,0,1-.768.1,2.856,2.856,0,0,1-.549-.052,2.919,2.919,0,0,0,2.724,2.025A5.839,5.839,0,0,1,.96,13.4a6.092,6.092,0,0,1-.695-.039,8.257,8.257,0,0,0,4.472,1.309,8.245,8.245,0,0,0,8.3-8.3c0-.128,0-.254-.009-.38a5.837,5.837,0,0,0,1.457-1.509" transform="translate(67.561 -0.603)" fill="#fff"/></g></svg>