<svg xmlns="http://www.w3.org/2000/svg" width="30" height="30" viewBox="0 0 30 30"><g transform="translate(-30)"><g transform="translate(30)" fill="#2d2e3a" stroke="#2d2e3a" stroke-width="3"><circle cx="15" cy="15" r="15" stroke="none"/><circle cx="15" cy="15" r="13.5" fill="none"/></g><path d="M1562.213,328.468v-4.652h2.326V327.3a1.163,1.163,0,0,1-1.163,1.163Zm-6.4,0v-4.652h2.327v4.652Zm-4.652,0A1.163,1.163,0,0,1,1550,327.3v-1.163h2.326v2.326ZM1550,324.4v-5.234a1.163,1.163,0,0,1,1.163-1.164h1.164a5.822,5.822,0,0,1,5.815,5.815h-2.326a3.494,3.494,0,0,0-3.489-3.489V324.4Zm14.538-.582h-2.325a3.495,3.495,0,0,0-3.49-3.489V318a5.823,5.823,0,0,1,5.816,5.815h0Z" transform="translate(-1512.405 -308.369)" fill="#fff"/></g></svg>