<svg xmlns="http://www.w3.org/2000/svg" width="104.396" height="35" viewBox="0 0 104.396 35"><g fill="#2d2e3a" stroke="#2d2e3a" stroke-width="3"><circle cx="17.5" cy="17.5" r="17.5" stroke="none"/><circle cx="17.5" cy="17.5" r="16" fill="none"/></g><path d="M.572-10.1h2.09v.88a7.324,7.324,0,0,1,1.32-.77A3.848,3.848,0,0,1,5.5-10.3a3.179,3.179,0,0,1,1.573.374A4.482,4.482,0,0,1,8.36-8.778,5.667,5.667,0,0,1,9.911-9.9a4.04,4.04,0,0,1,1.771-.4A2.862,2.862,0,0,1,14.41-8.734a6.937,6.937,0,0,1,.638,3.256V0h-2.09V-5.742a3.276,3.276,0,0,0-.506-2.09,1.506,1.506,0,0,0-1.232-.506,2.586,2.586,0,0,0-1.276.33,10.432,10.432,0,0,0-1.078.792V0H6.776V-5.522a3.991,3.991,0,0,0-.44-2.189A1.42,1.42,0,0,0,5.1-8.338a2.9,2.9,0,0,0-1.276.286,4.809,4.809,0,0,0-1.166.814V0H.572Zm21.384-.242a4.945,4.945,0,0,1,3.707,1.6,5.3,5.3,0,0,1,1.529,3.8,4.844,4.844,0,0,1-1.628,3.718,5.5,5.5,0,0,1-3.85,1.5A5.041,5.041,0,0,1,18.04-1.32a5.041,5.041,0,0,1-1.584-3.674A5.068,5.068,0,0,1,18.04-8.833,5.463,5.463,0,0,1,21.956-10.34ZM21.78-1.716a3.379,3.379,0,0,0,2.42-.968,3.135,3.135,0,0,0,1.012-2.354,3.215,3.215,0,0,0-.99-2.354,3.215,3.215,0,0,0-2.354-.99,3.423,3.423,0,0,0-2.453.979,3.2,3.2,0,0,0-1.023,2.409,3.08,3.08,0,0,0,1.034,2.288A3.312,3.312,0,0,0,21.78-1.716ZM36.19-7.458A4.257,4.257,0,0,0,34.87-8.1a5.033,5.033,0,0,0-1.5-.264,2.84,2.84,0,0,0-2.343.99,3.922,3.922,0,0,0-.8,2.552,2.994,2.994,0,0,0,.88,2.244,3.11,3.11,0,0,0,2.266.858,4.048,4.048,0,0,0,1.474-.264,9.124,9.124,0,0,0,1.5-.77V-.66a4.707,4.707,0,0,1-1.474.7A6.22,6.22,0,0,1,33.2.264a4.725,4.725,0,0,1-3.641-1.573,5.419,5.419,0,0,1-1.441-3.8,5.167,5.167,0,0,1,1.441-3.751,4.939,4.939,0,0,1,3.707-1.485,5.279,5.279,0,0,1,1.5.22q.176.044,1.43.506Zm.99-8.074h2.09v6.468a10.821,10.821,0,0,1,1.342-.88A3.582,3.582,0,0,1,42.2-10.3a3.059,3.059,0,0,1,2.772,1.364,5.7,5.7,0,0,1,.748,3.146V0H43.648l-.022-5.544a3.637,3.637,0,0,0-.484-2.31,2.016,2.016,0,0,0-1.518-.506,2.923,2.923,0,0,0-1.034.231,4.653,4.653,0,0,0-1.32.869V0H37.18ZM51.986-6.424a2.564,2.564,0,0,0-.33-1.408,1.436,1.436,0,0,0-1.276-.616,3.644,3.644,0,0,0-1.672.506A7.8,7.8,0,0,0,47.234-6.93l.022-2.09a6.376,6.376,0,0,1,1.694-.957A5.139,5.139,0,0,1,50.8-10.34,2.777,2.777,0,0,1,53.46-8.932a6.733,6.733,0,0,1,.572,3.124q0,.484-.044,1.6t-.044,1.155a5.227,5.227,0,0,0,.066.858q.066.4.352.462L55.4-2.09v1.5a8.9,8.9,0,0,1-1.232.627,3.144,3.144,0,0,1-1.188.231.83.83,0,0,1-.561-.253,1.716,1.716,0,0,1-.407-.539q-.682.352-1.122.528a3.286,3.286,0,0,1-1.21.264,3.123,3.123,0,0,1-2.09-.638,2.558,2.558,0,0,1-.814-2.046q0-1.43,1.958-2.464a17.527,17.527,0,0,1,3.256-1.188Zm0,1.606a7.994,7.994,0,0,0-1.936.7,1.87,1.87,0,0,0-1.166,1.562,1.18,1.18,0,0,0,.374.858,1.2,1.2,0,0,0,.88.374,2.383,2.383,0,0,0,.946-.22q.616-.308.9-.44Z" transform="translate(49 23)" fill="#2d2e3a"/><path d="M1564.378,330.323v-5.477h2.738v4.107a1.369,1.369,0,0,1-1.369,1.369Zm-7.532,0v-5.477h2.739v5.477Zm-5.477,0a1.369,1.369,0,0,1-1.369-1.369v-1.369h2.739v2.738ZM1550,325.531v-6.162a1.369,1.369,0,0,1,1.369-1.37h1.37a6.854,6.854,0,0,1,6.846,6.846h-2.738a4.113,4.113,0,0,0-4.107-4.107v4.793Zm17.116-.685h-2.738a4.114,4.114,0,0,0-4.108-4.107V318a6.855,6.855,0,0,1,6.846,6.846h0Z" transform="translate(-1541.058 -306.662)" fill="#fff"/></svg>