<svg xmlns="http://www.w3.org/2000/svg" width="55" height="55" viewBox="0 0 55 55"><circle cx="27.5" cy="27.5" r="27.5" fill="#fff"/><path d="M1572.931,337.654V328.92h4.367v6.551a2.183,2.183,0,0,1-2.184,2.184Zm-12.012,0V328.92h4.368v8.734Zm-8.736,0A2.183,2.183,0,0,1,1550,335.47v-2.184h4.368v4.367ZM1550,330.011v-9.827a2.184,2.184,0,0,1,2.183-2.185h2.185a10.931,10.931,0,0,1,10.918,10.918h-4.367a6.559,6.559,0,0,0-6.551-6.551v7.644Zm27.3-1.093h-4.366a6.561,6.561,0,0,0-6.552-6.551V318a10.932,10.932,0,0,1,10.919,10.918h0Z" transform="translate(-1536.149 -300.327)" fill="#1e1e29"/></svg>