<svg xmlns="http://www.w3.org/2000/svg" width="123.784" height="40" viewBox="0 0 123.784 40"><g transform="translate(0.521)"><rect width="123.393" height="40" transform="translate(-0.129)" fill="#f4f6f8" opacity="0"/><g transform="translate(-51.42 -42.78)"><path d="M154.093,74.059a7.331,7.331,0,0,1,3.062.59,4.554,4.554,0,0,1,2.016,1.674,4.61,4.61,0,0,1,.7,2.568,4.669,4.669,0,0,1-.7,2.568,4.555,4.555,0,0,1-2.016,1.674,7.546,7.546,0,0,1-3.062.57h-2.682v3.671H148.33V74.059Zm-.171,7.133a3.273,3.273,0,0,0,2.111-.59,2.114,2.114,0,0,0,.723-1.712,2.08,2.08,0,0,0-.723-1.712,3.2,3.2,0,0,0-2.111-.609h-2.511v4.622Z" transform="translate(-66.533 -16.389)" fill="#2d2e3a"/><path d="M190.849,84.8a3.308,3.308,0,0,1,1.426-1.122,5.4,5.4,0,0,1,2.092-.38v2.739Q193.873,86,193.7,86a2.7,2.7,0,0,0-2,.723,2.848,2.848,0,0,0-.723,2.13v4.831h-2.967V83.448h2.834Z" transform="translate(-93.633 -22.697)" fill="#2d2e3a"/><path d="M213.55,93.833a6.263,6.263,0,0,1-2.91-.666,5.1,5.1,0,0,1-2-1.883,5.479,5.479,0,0,1,0-5.44,4.97,4.97,0,0,1,2-1.864,6.122,6.122,0,0,1,2.91-.685,6.011,6.011,0,0,1,2.891.685,4.97,4.97,0,0,1,2,1.864,5.479,5.479,0,0,1,0,5.44,5.1,5.1,0,0,1-2,1.883A6.148,6.148,0,0,1,213.55,93.833Zm0-2.435a2.455,2.455,0,0,0,1.864-.761,2.882,2.882,0,0,0,.742-2.073,2.816,2.816,0,0,0-.742-2.054,2.426,2.426,0,0,0-1.864-.78,2.486,2.486,0,0,0-1.883.78,2.816,2.816,0,0,0-.742,2.054,2.882,2.882,0,0,0,.742,2.073A2.516,2.516,0,0,0,213.55,91.4Z" transform="translate(-107.226 -22.697)" fill="#2d2e3a"/><path d="M259.493,74.059V87.373h-2.53l-6.638-8.084v8.084h-3.043V74.059h2.549l6.619,8.084V74.059Z" transform="translate(-134.106 -16.389)" fill="#2d2e3a"/><path d="M294.756,83.3a5.3,5.3,0,0,1,3.652,1.141,4.3,4.3,0,0,1,1.275,3.4v5.839h-2.777V92.406a3.306,3.306,0,0,1-3.119,1.426,4.906,4.906,0,0,1-2.054-.4,3.057,3.057,0,0,1-1.312-1.1,2.87,2.87,0,0,1-.457-1.6,2.675,2.675,0,0,1,1.065-2.244,5.522,5.522,0,0,1,3.328-.818h2.358a1.861,1.861,0,0,0-.59-1.484,2.566,2.566,0,0,0-1.769-.533,5.082,5.082,0,0,0-1.617.266,4.129,4.129,0,0,0-1.332.685l-1.065-2.073a6.436,6.436,0,0,1,2-.913A9.1,9.1,0,0,1,294.756,83.3Zm-.228,8.54a2.639,2.639,0,0,0,1.35-.342,1.97,1.97,0,0,0,.837-1.046V89.4H294.68q-1.826,0-1.826,1.2a1.1,1.1,0,0,0,.437.913A2.1,2.1,0,0,0,294.528,91.836Z" transform="translate(-163.252 -22.697)" fill="#2d2e3a"/><path d="M330.06,88.64a3.169,3.169,0,0,1-1.084.495,5.652,5.652,0,0,1-1.332.152,4.019,4.019,0,0,1-2.834-.932,3.586,3.586,0,0,1-.989-2.739v-4.2h-1.579V79.13h1.579V76.638h2.967V79.13h2.549v2.282h-2.549v4.166a1.459,1.459,0,0,0,.323,1.008,1.286,1.286,0,0,0,.951.342,1.908,1.908,0,0,0,1.2-.38Z" transform="translate(-185.295 -18.15)" fill="#2d2e3a"/><path d="M359.333,83.775V94.009h-2.815V92.791a4.041,4.041,0,0,1-1.407,1.027,4.534,4.534,0,0,1-1.769.342,4.359,4.359,0,0,1-3.2-1.16,4.625,4.625,0,0,1-1.179-3.443V83.775h2.967V89.12q0,2.473,2.073,2.473a2.244,2.244,0,0,0,1.712-.685,2.965,2.965,0,0,0,.647-2.073V83.775Z" transform="translate(-203.544 -23.024)" fill="#2d2e3a"/><path d="M390.158,84.8a3.308,3.308,0,0,1,1.426-1.122,5.4,5.4,0,0,1,2.092-.38v2.739q-.495-.038-.666-.038a2.7,2.7,0,0,0-2,.723,2.848,2.848,0,0,0-.723,2.13v4.831h-2.967V83.448h2.834Z" transform="translate(-229.737 -22.697)" fill="#2d2e3a"/><path d="M418.014,88.6q0,.057-.057.8h-7.741a2.411,2.411,0,0,0,.989,1.5,3.276,3.276,0,0,0,1.94.551,4,4,0,0,0,1.408-.228,3.528,3.528,0,0,0,1.16-.761l1.579,1.712a5.306,5.306,0,0,1-4.223,1.655,6.757,6.757,0,0,1-3.062-.666,5.014,5.014,0,0,1-2.054-1.883,5.163,5.163,0,0,1-.723-2.72,5.234,5.234,0,0,1,.7-2.7,5,5,0,0,1,1.959-1.883,6.047,6.047,0,0,1,5.516-.038,4.643,4.643,0,0,1,1.9,1.864A5.42,5.42,0,0,1,418.014,88.6Zm-5.307-3.062a2.555,2.555,0,0,0-1.693.571,2.429,2.429,0,0,0-.837,1.56h5.04a2.415,2.415,0,0,0-.837-1.541A2.477,2.477,0,0,0,412.707,85.54Z" transform="translate(-243.33 -22.697)" fill="#2d2e3a"/><path d="M64.9,50.255a1.459,1.459,0,0,0-1.462,0A10.773,10.773,0,0,0,58.189,61.24a8,8,0,0,0-6.559.649,1.459,1.459,0,0,0-.731,1.266,8,8,0,0,0,7.981,7.993,5.605,5.605,0,1,0,10.573,0,8,8,0,0,0,7.734-7.989,1.459,1.459,0,0,0-.731-1.266,8.006,8.006,0,0,0-6.3-.733,10.776,10.776,0,0,0-5.261-10.9Zm-3.92,9.316a7.825,7.825,0,0,1,3.189-6.311,7.839,7.839,0,0,1,0,12.621A7.825,7.825,0,0,1,60.979,59.571Zm8.945,4.847a5.062,5.062,0,0,1,4.266-.376,5.074,5.074,0,0,1-6.724,3.882A5.061,5.061,0,0,1,69.924,64.418ZM53.9,64.042a5.074,5.074,0,0,1,6.724,3.882A5.074,5.074,0,0,1,53.9,64.042Zm7.584,8.972A2.686,2.686,0,1,1,64.168,75.7,2.686,2.686,0,0,1,61.482,73.014Z" fill="#2d2e3a" fill-rule="evenodd"/></g></g></svg>