<svg xmlns="http://www.w3.org/2000/svg" width="62.848" height="48.618" viewBox="0 0 62.848 48.618">
  <path id="quote-open" d="M-6.429-85.3c-10.5,7.284-17.448,18.634-17.448,31.339,0,11.011,7.115,17.279,15.077,17.279A13.522,13.522,0,0,0,4.582-50.067c0-7.284-5.082-12.2-11.519-12.2a8.332,8.332,0,0,0-3.388.508c1.525-6.1,7.792-13.213,13.213-16.093Zm34.388,0c-10.5,7.284-17.279,18.634-17.279,31.339,0,11.011,6.945,17.279,14.907,17.279A13.411,13.411,0,0,0,38.971-50.067c0-7.284-5.082-12.2-11.35-12.2a8.332,8.332,0,0,0-3.388.508c1.355-6.1,7.792-13.213,13.213-16.093Z" transform="translate(23.877 85.302)" fill="#fff"/>
</svg>
