<svg xmlns="http://www.w3.org/2000/svg" width="71" height="54.925" viewBox="0 0 71 54.925"><path d="M-4.165-85.3c-11.865,8.229-19.712,21.051-19.712,35.4,0,12.439,8.038,19.52,17.032,19.52A15.276,15.276,0,0,0,8.274-45.5c0-8.229-5.741-13.779-13.013-13.779a9.413,9.413,0,0,0-3.827.574C-6.845-65.59.236-73.628,6.36-76.882Zm38.849,0c-11.865,8.229-19.52,21.051-19.52,35.4,0,12.439,7.846,19.52,16.841,19.52A15.15,15.15,0,0,0,47.123-45.5c0-8.229-5.741-13.779-12.822-13.779a9.413,9.413,0,0,0-3.827.574C32-65.59,39.277-73.628,45.4-76.882Z" transform="translate(23.877 85.302)" fill="#beded4"/></svg>