<svg xmlns="http://www.w3.org/2000/svg" width="113.637" height="40" viewBox="0 0 113.637 40"><g transform="translate(0.205)"><rect width="113.637" height="40" transform="translate(-0.205)" fill="#f4f6f8" opacity="0"/><g transform="translate(-50.244 -41.753)"><path d="M50.039,93.169l8.1-3.6,4.66,2.7.941,8.865-5.742-.047.847-6.163-.988-.569L53,98.146Z" transform="translate(0 -26.409)" fill="#2d2e3a"/><path d="M91.641,74.079l7.154,5.262,2.824-5.073-5.742-2.323V70.808l5.742-2.37-2.824-5.025-7.154,5.262Z" transform="translate(-28.328 -8.6)" fill="#2d2e3a"/><path d="M62.794,59.648l.941-8.865-5.742.095.847,6.163-.988.569-4.895-3.793-2.918,4.931,8.1,3.6Z" transform="translate(0 0)" fill="#2d2e3a"/><path d="M179.948,80.108v8.306h3.09V77.829h-4.5v2.279Z" transform="translate(-87.501 -18.417)" fill="#2d2e3a"/><path d="M181.79,67.231a1.714,1.714,0,0,0,1.294.444,1.511,1.511,0,0,0,1.7-1.6,1.537,1.537,0,0,0-1.7-1.623,1.672,1.672,0,0,0-1.294.464,1.652,1.652,0,0,0-.406,1.159A1.7,1.7,0,0,0,181.79,67.231Z" transform="translate(-89.439 -9.307)" fill="#2d2e3a"/><path d="M143.549,79.772a8.9,8.9,0,0,0,6.316.039,4.534,4.534,0,0,0,1.989-1.565,4.045,4.045,0,0,0,.715-2.376,3.613,3.613,0,0,0-.676-2.221,4.335,4.335,0,0,0-1.835-1.449,8.2,8.2,0,0,0-2.723-.676l-1.082-.1a2.1,2.1,0,0,1-1.391-.522,1.46,1.46,0,0,1-.425-1.043,1.625,1.625,0,0,1,.232-.85,1.6,1.6,0,0,1,.7-.637,2.709,2.709,0,0,1,1.178-.232,2.465,2.465,0,0,1,1.217.27,2.212,2.212,0,0,1,.2.122l.015.011.07.05a1.748,1.748,0,0,1,.467.531,1.828,1.828,0,0,1,.251.947h3.09a4.476,4.476,0,0,0-.637-2.414,4.146,4.146,0,0,0-1.835-1.6,7.236,7.236,0,0,0-5.582-.039,3.97,3.97,0,0,0-2.453,3.844,3.875,3.875,0,0,0,1.256,3.013,5.517,5.517,0,0,0,3.361,1.313l1.062.1a3.983,3.983,0,0,1,1.873.521,1.212,1.212,0,0,1,.579,1.062,1.648,1.648,0,0,1-.1.583,1.6,1.6,0,0,1-.207.383,2.03,2.03,0,0,1-.908.637,4.148,4.148,0,0,1-1.487.232,4.03,4.03,0,0,1-1.6-.271,2.2,2.2,0,0,1-.927-.753,1.862,1.862,0,0,1-.289-1h-3.071a4.435,4.435,0,0,0,.676,2.434A4.655,4.655,0,0,0,143.549,79.772Z" transform="translate(-61.86 -10.007)" fill="#2d2e3a"/><path d="M201.27,82.447a7.207,7.207,0,0,1-2.588-.386,2.721,2.721,0,0,1-1.449-1.333,6.083,6.083,0,0,1-.444-2.55V73.987h-1.6v-2.26h1.6V68.869h2.878v2.859h3.091v2.26h-3.091v4.307a1.615,1.615,0,0,0,.386,1.159,1.585,1.585,0,0,0,1.14.386h1.565v2.608Z" transform="translate(-98.837 -12.316)" fill="#2d2e3a"/><path d="M223.943,87.534a5.848,5.848,0,0,0,2.4.464,5.663,5.663,0,0,0,2.357-.464,4.6,4.6,0,0,0,1.7-1.294,4.459,4.459,0,0,0,.908-1.893h-2.839a1.694,1.694,0,0,1-.734.811,2.648,2.648,0,0,1-1.391.329,3.271,3.271,0,0,1-.941-.125,2.1,2.1,0,0,1-.566-.262,2.234,2.234,0,0,1-.85-1.082,3.708,3.708,0,0,1-.129-.414,4.371,4.371,0,0,1-.089-.455H231.5V82.106a5.8,5.8,0,0,0-.618-2.665,4.954,4.954,0,0,0-1.8-1.99,5.041,5.041,0,0,0-2.859-.773,5.561,5.561,0,0,0-2.318.464,4.754,4.754,0,0,0-1.68,1.217,5.64,5.64,0,0,0-1.043,1.758,5.944,5.944,0,0,0-.347,2.028v.386a5.633,5.633,0,0,0,1.391,3.767A5.114,5.114,0,0,0,223.943,87.534Zm-.126-6.295c.009-.041.018-.081.027-.121q.04-.164.093-.314.03-.085.063-.166a2.263,2.263,0,0,1,.85-1.082,2.1,2.1,0,0,1,.453-.223,2.757,2.757,0,0,1,.918-.144,2.227,2.227,0,0,1,1.314.367,2.1,2.1,0,0,1,.811,1.024c.015.036.028.073.042.111q.032.09.06.184.041.14.072.29c.015.074.028.149.04.226h-4.773Q223.8,81.314,223.817,81.239Z" transform="translate(-116.302 -17.634)" fill="#2d2e3a" fill-rule="evenodd"/><path d="M258.248,87.713V77.128H260.7v2.666q.05-.238.114-.456c.036-.123.075-.241.118-.355a3.245,3.245,0,0,1,1.217-1.623,3.416,3.416,0,0,1,1.99-.56h.135a3.361,3.361,0,0,1,1.99.56,3.243,3.243,0,0,1,1.217,1.623l.021.054.018.05c.012-.035.025-.07.038-.1a3.349,3.349,0,0,1,1.236-1.623,3.417,3.417,0,0,1,1.99-.56h.135a3.451,3.451,0,0,1,2.008.56,3.3,3.3,0,0,1,1.255,1.623,7.446,7.446,0,0,1,.425,2.7v6.027h-3.091v-6.2a2.09,2.09,0,0,0-.464-1.41,1.555,1.555,0,0,0-1.275-.541,1.644,1.644,0,0,0-1.314.56,2.1,2.1,0,0,0-.483,1.449v6.142h-3.11v-6.2a2.09,2.09,0,0,0-.464-1.41,1.533,1.533,0,0,0-1.255-.541,1.667,1.667,0,0,0-1.333.56,2.094,2.094,0,0,0-.483,1.449v6.142Z" transform="translate(-141.779 -17.716)" fill="#2d2e3a"/><path d="M320.024,86v2.04h2.453v-6.49a4.458,4.458,0,0,0-.579-2.4,3.489,3.489,0,0,0-1.7-1.41,7.034,7.034,0,0,0-2.723-.464q-.352,0-.734.008l-.463.012q-.637.019-1.236.058l-.3.021-.442.033-.3.024v2.608q.6-.039,1.333-.077l.407-.02q.292-.014.576-.024l.446-.014q.695-.019,1.12-.019a1.642,1.642,0,0,1,1.236.406,1.7,1.7,0,0,1,.386,1.217v.039H317.59a7.75,7.75,0,0,0-2.492.367,3.408,3.408,0,0,0-1.68,1.1,2.9,2.9,0,0,0-.6,1.893,3.392,3.392,0,0,0,.483,1.835,3.162,3.162,0,0,0,1.333,1.158,4.7,4.7,0,0,0,2.009.406,3.871,3.871,0,0,0,1.855-.406,2.887,2.887,0,0,0,1.2-1.158q.075-.127.14-.264a3.735,3.735,0,0,0,.164-.407Zm-.522-1.881v-.85H317.57a1.794,1.794,0,0,0-1.255.406,1.364,1.364,0,0,0-.425,1.062,1.526,1.526,0,0,0,.106.579,1.331,1.331,0,0,0,.319.464,1.852,1.852,0,0,0,1.255.386,2.913,2.913,0,0,0,.3-.015q.118-.012.228-.035a2.046,2.046,0,0,0,.4-.124,1.567,1.567,0,0,0,.695-.637A2.627,2.627,0,0,0,319.5,84.121Z" transform="translate(-178.939 -18.046)" fill="#2d2e3a" fill-rule="evenodd"/><path d="M348.885,88.125V77.54h2.453v3.494a4.762,4.762,0,0,1,.889-2.412,3.342,3.342,0,0,1,2.782-1.217h.405V80.07h-.773a2.665,2.665,0,0,0-1.97.7,2.625,2.625,0,0,0-.7,1.97v5.389Z" transform="translate(-203.498 -18.129)" fill="#2d2e3a"/><path d="M375.035,75.966h1.024l3.341,4.945h3.477l-4.237-6.073,3.484-4.512h-3.245l-3.844,5.033V66.81h-3.09v14.1h3.09Z" transform="translate(-219.201 -10.914)" fill="#2d2e3a"/></g></g></svg>