<svg xmlns="http://www.w3.org/2000/svg" width="77.4" height="40" viewBox="0 0 77.4 40"><g transform="translate(0.478)"><rect width="77.4" height="40" transform="translate(-0.478)" fill="#f4f6f8" opacity="0"/><g transform="translate(-47.341 -35.142)"><path d="M189.424,52.617a1.574,1.574,0,0,0,1.192.41,1.508,1.508,0,0,0,1.172-.41,1.557,1.557,0,0,0,.371-1.055,1.539,1.539,0,0,0-.371-1.075,1.508,1.508,0,0,0-1.172-.41,1.574,1.574,0,0,0-1.192.41,1.539,1.539,0,0,0-.371,1.075A1.557,1.557,0,0,0,189.424,52.617Z" transform="translate(-108.458 -2.051)" fill="#2d2e3a"/><path d="M137.362,68.208l3.322,10.61h4.357l2.872-10.61h-2.618l-2.161,8.382h-.461l-2.516-8.382Z" transform="translate(-68.8 -15.962)" fill="#2d2e3a"/><path d="M213.355,78.119a5.7,5.7,0,0,1-3.439-.918,3.22,3.22,0,0,1-1.29-2.579h2.442a1.5,1.5,0,0,0,.606,1,2.69,2.69,0,0,0,1.719.449,2.911,2.911,0,0,0,1.544-.352,1.074,1.074,0,0,0,.586-.957.974.974,0,0,0-.449-.84,3.126,3.126,0,0,0-1.485-.41l-.938-.1a4.95,4.95,0,0,1-2.735-1.016,2.737,2.737,0,0,1-.957-2.188,3.011,3.011,0,0,1,.547-1.837,3.3,3.3,0,0,1,1.5-1.114,5.958,5.958,0,0,1,2.227-.391,5.352,5.352,0,0,1,3.165.86,3.037,3.037,0,0,1,1.27,2.521h-2.443a1.276,1.276,0,0,0-.547-.938,2.366,2.366,0,0,0-1.465-.391,2.275,2.275,0,0,0-1.329.332,1.012,1.012,0,0,0-.469.86.913.913,0,0,0,.371.782,2.79,2.79,0,0,0,1.25.371l.938.1a5.55,5.55,0,0,1,2.931,1.036,2.726,2.726,0,0,1,1.075,2.267A2.977,2.977,0,0,1,217.4,76.5a3.712,3.712,0,0,1-1.6,1.192A6.346,6.346,0,0,1,213.355,78.119Z" transform="translate(-123.476 -14.931)" fill="#2d2e3a"/><path d="M254.4,52.617a1.575,1.575,0,0,0,1.192.41,1.508,1.508,0,0,0,1.172-.41,1.558,1.558,0,0,0,.371-1.055,1.541,1.541,0,0,0-.371-1.075,1.508,1.508,0,0,0-1.172-.41,1.575,1.575,0,0,0-1.192.41,1.54,1.54,0,0,0-.371,1.075A1.558,1.558,0,0,0,254.4,52.617Z" transform="translate(-158.306 -2.051)" fill="#2d2e3a"/><path d="M280.156,77.965a6.39,6.39,0,0,1-2.481-.449,5.422,5.422,0,0,1-1.817-1.211,5.5,5.5,0,0,1-1.133-1.759,5.674,5.674,0,0,1-.371-2.032V72.1a5.382,5.382,0,0,1,1.544-3.83,5.256,5.256,0,0,1,1.837-1.211,6.755,6.755,0,0,1,4.845,0,5.36,5.36,0,0,1,2.97,2.97,5.526,5.526,0,0,1,.391,2.071v.41a5.423,5.423,0,0,1-.391,2.032,5.235,5.235,0,0,1-1.114,1.759,5.421,5.421,0,0,1-1.817,1.211A6.334,6.334,0,0,1,280.156,77.965Zm0-2.325a3.1,3.1,0,0,0,1.68-.43,2.872,2.872,0,0,0,1.036-1.192,4.058,4.058,0,0,0,.351-1.719,3.8,3.8,0,0,0-.371-1.719,2.683,2.683,0,0,0-1.055-1.192,2.922,2.922,0,0,0-1.641-.449,3.019,3.019,0,0,0-1.661.449,2.848,2.848,0,0,0-1.055,1.192,3.8,3.8,0,0,0-.371,1.719,4.054,4.054,0,0,0,.352,1.719,3.012,3.012,0,0,0,1.055,1.192A3.1,3.1,0,0,0,280.156,75.64Z" transform="translate(-173.903 -14.738)" fill="#2d2e3a" fill-rule="evenodd"/><path d="M332.532,68.969a5.181,5.181,0,0,0-.234.758V67.113h-2.149v10.61h2.716V71.49a2.218,2.218,0,0,1,.606-1.641,2.194,2.194,0,0,1,1.622-.625,1.949,1.949,0,0,1,1.524.606,2.223,2.223,0,0,1,.567,1.583v6.311H339.9V71.646a5.707,5.707,0,0,0-.977-3.634,3.447,3.447,0,0,0-2.872-1.231h-.117a3.891,3.891,0,0,0-2.13.547A3.342,3.342,0,0,0,332.532,68.969Z" transform="translate(-216.71 -14.867)" fill="#2d2e3a"/><path d="M186.593,70.24v8.578h2.716V68.208h-4.2V70.24Z" transform="translate(-105.432 -15.962)" fill="#2d2e3a"/><path d="M251.563,70.24v8.578h2.716V68.208h-4.2V70.24Z" transform="translate(-155.278 -15.962)" fill="#2d2e3a"/><path d="M58.868,67.088a8.505,8.505,0,1,0-8.505-8.505A8.505,8.505,0,0,0,58.868,67.088ZM65.127,57.7a4.138,4.138,0,0,1-3.148,1.5,4.638,4.638,0,0,1-4.356-4.875,5.362,5.362,0,0,1,.347-1.909A6.28,6.28,0,0,0,53.194,61.2a2.082,2.082,0,0,1,1.421-.541,1.876,1.876,0,0,1,1.971,1.763,1.74,1.74,0,0,1-.989,1.529,6.276,6.276,0,0,0,9.6-5.324A6.347,6.347,0,0,0,65.127,57.7Z" transform="translate(-2.051 -2.051)" fill="#2d2e3a" fill-rule="evenodd"/><path d="M63.076,55.649l.615-.091-.2-1.353L62.6,55.244ZM55.918,50.37l.582.221.379-1-1.054.16Zm-4.775,8.777-.567.255.356.791.635-.591Zm2.4,2.751-.285-.553-.972.5.927.58ZM64.7,56.531a7.883,7.883,0,0,1-7.883,7.883v1.245a9.128,9.128,0,0,0,9.128-9.128Zm-7.883-7.883A7.883,7.883,0,0,1,64.7,56.531h1.245A9.128,9.128,0,0,0,56.816,47.4Zm-7.883,7.883a7.883,7.883,0,0,1,7.883-7.883V47.4a9.128,9.128,0,0,0-9.128,9.128Zm7.883,7.883a7.883,7.883,0,0,1-7.883-7.883H47.689a9.128,9.128,0,0,0,9.128,9.128Zm3.112-6.638a4.76,4.76,0,0,0,3.621-1.723l-.946-.809a3.517,3.517,0,0,1-2.675,1.287Zm-4.979-5.5a5.258,5.258,0,0,0,4.979,5.5V56.531a4.018,4.018,0,0,1-3.734-4.253Zm.387-2.13a5.984,5.984,0,0,0-.387,2.13h1.245a4.739,4.739,0,0,1,.306-1.687Zm-4.121,6.425a5.654,5.654,0,0,1,4.8-5.588l-.187-1.231a6.9,6.9,0,0,0-5.854,6.819Zm.5,2.318a5.63,5.63,0,0,1-.5-2.318H49.971a6.875,6.875,0,0,0,.6,2.829Zm.853-.908a2.7,2.7,0,0,0-1.845.708l.848.911a1.461,1.461,0,0,1,1-.374Zm2.593,2.386a2.5,2.5,0,0,0-2.593-2.386v1.245a1.257,1.257,0,0,1,1.348,1.141Zm-1.326,2.082a2.362,2.362,0,0,0,1.326-2.082H53.912a1.119,1.119,0,0,1-.651.976Zm3.037-.225a5.622,5.622,0,0,1-2.993-.856l-.66,1.055a6.869,6.869,0,0,0,3.652,1.045Zm5.653-5.653a5.653,5.653,0,0,1-5.653,5.653v1.245a6.9,6.9,0,0,0,6.9-6.9Zm-.061-.834a5.722,5.722,0,0,1,.061.834h1.245a6.938,6.938,0,0,0-.074-1.016Z" transform="translate(0 0)" fill="#2d2e3a"/></g></g></svg>