<svg xmlns="http://www.w3.org/2000/svg" width="121.24" height="40" viewBox="0 0 121.24 40"><g transform="translate(-701.757)"><rect width="121.239" height="40" transform="translate(701.757)" fill="#f4f6f8" opacity="0"/><g transform="translate(651.403 -44.247)"><path d="M54.789,57.247a11.173,11.173,0,0,1,17.978.048,3.222,3.222,0,0,0-.237.273,6.357,6.357,0,0,0-.877,1.735,35.958,35.958,0,0,0-1.116,4.479l-.028.14a38.466,38.466,0,0,1-.973,4.06,5.141,5.141,0,0,1-.449,1.038,5.144,5.144,0,0,1-.471-1.051,38.534,38.534,0,0,1-1.047-4.2l-.011-.052h0a39.812,39.812,0,0,0-1.11-4.41,6.669,6.669,0,0,0-.835-1.719,2.191,2.191,0,0,0-1.751-1,2.217,2.217,0,0,0-1.753.987,6.765,6.765,0,0,0-.864,1.714,39.125,39.125,0,0,0-1.189,4.466l-.036.161h0c-.348,1.54-.672,2.979-1.041,4.051a6.459,6.459,0,0,1-.394.943,6.467,6.467,0,0,1-.384-.936c-.354-1.049-.664-2.448-1-3.951l-.058-.263a36.974,36.974,0,0,0-1.187-4.474,6.606,6.606,0,0,0-.885-1.722A3.18,3.18,0,0,0,54.789,57.247Zm-1.232,2.1a6.886,6.886,0,0,1,.306.716,35.124,35.124,0,0,1,1.1,4.183l.069.31c.322,1.454.656,2.966,1.05,4.134a7.026,7.026,0,0,0,.788,1.7,1.941,1.941,0,0,0,3.42,0,7.063,7.063,0,0,0,.8-1.7,43.285,43.285,0,0,0,1.093-4.22h0l.051-.226a37.281,37.281,0,0,1,1.108-4.191,5.053,5.053,0,0,1,.512-1.084,5.036,5.036,0,0,1,.483,1.068,38.541,38.541,0,0,1,1.046,4.2l.011.052h0a39.784,39.784,0,0,0,1.11,4.41,6.663,6.663,0,0,0,.835,1.719,2.028,2.028,0,0,0,3.5-.009,6.592,6.592,0,0,0,.813-1.723,39.405,39.405,0,0,0,1.027-4.243h0l.044-.215a34.12,34.12,0,0,1,1.033-4.179c.084-.238.167-.44.247-.61a11.171,11.171,0,1,1-20.448-.093Zm10.2-8.85A13.406,13.406,0,1,0,77.166,63.906,13.406,13.406,0,0,0,63.76,50.5Zm.255,8.291-.008.005Zm-.309,0-.008-.006Zm5.215,10.44.007-.006Zm.325-.009.008.006Zm-10.9.029.01-.008Zm.452-.006.01.008Z" transform="translate(0)" fill="#2d2e3a" fill-rule="evenodd"/><path d="M143.1,91.168l-3.251-11.12H142.7l1.928,8,2.242-8h3.183l2.242,8,1.951-8h2.847l-3.273,11.12H150.84l-2.377-8.318-2.376,8.318Z" transform="translate(-58.537 -19.326)" fill="#2d2e3a"/><path d="M193.883,90.929a5.373,5.373,0,0,1-2.354-.449,3.15,3.15,0,0,1-1.816-2.914,3.059,3.059,0,0,1,1.21-2.511,5.758,5.758,0,0,1,3.632-.964h2.825v-.269a2.06,2.06,0,0,0-.65-1.681,2.448,2.448,0,0,0-1.614-.538,2.719,2.719,0,0,0-1.525.426,1.747,1.747,0,0,0-.807,1.211h-2.8a3.962,3.962,0,0,1,.807-2.107,4.579,4.579,0,0,1,1.838-1.368,6.172,6.172,0,0,1,2.511-.493,5.517,5.517,0,0,1,3.744,1.188,4.216,4.216,0,0,1,1.368,3.363v6.838h-2.444l-.269-1.793a4.116,4.116,0,0,1-1.39,1.48A4.011,4.011,0,0,1,193.883,90.929Zm.65-2.242a2.342,2.342,0,0,0,1.906-.807,3.871,3.871,0,0,0,.875-2h-2.444a2.5,2.5,0,0,0-1.637.426,1.253,1.253,0,0,0-.493,1.009,1.175,1.175,0,0,0,.493,1.009A2.162,2.162,0,0,0,194.533,88.686Z" transform="translate(-91.147 -18.817)" fill="#2d2e3a"/><path d="M225.515,91.168l-4.08-11.12h3l2.825,8.407,2.825-8.407h3l-4.1,11.12Z" transform="translate(-111.895 -19.326)" fill="#2d2e3a"/><path d="M260.916,90.929a6.072,6.072,0,0,1-2.982-.718,5.2,5.2,0,0,1-2.04-2.018,5.966,5.966,0,0,1-.74-3,6.428,6.428,0,0,1,.717-3.071,5.312,5.312,0,0,1,2.018-2.085,5.918,5.918,0,0,1,3.049-.762,5.726,5.726,0,0,1,2.892.717,5.051,5.051,0,0,1,1.951,1.973,5.383,5.383,0,0,1,.717,2.758q0,.247-.022.516,0,.269-.022.56H258a2.791,2.791,0,0,0,2.892,2.78,2.609,2.609,0,0,0,1.457-.381,2.48,2.48,0,0,0,.9-1.031h2.915a5.31,5.31,0,0,1-1.054,1.928,5.072,5.072,0,0,1-1.794,1.345A5.6,5.6,0,0,1,260.916,90.929Zm.022-9.327a3.019,3.019,0,0,0-1.861.605A2.709,2.709,0,0,0,258.046,84h5.538a2.421,2.421,0,0,0-.807-1.749A2.685,2.685,0,0,0,260.938,81.6Z" transform="translate(-133.948 -18.817)" fill="#2d2e3a"/><path d="M292.329,81.674V65.532h2.87V81.674Z" transform="translate(-158.262 -9.831)" fill="#2d2e3a"/><path d="M311.233,90.929a6.073,6.073,0,0,1-2.982-.718,5.2,5.2,0,0,1-2.04-2.018,5.966,5.966,0,0,1-.74-3,6.427,6.427,0,0,1,.717-3.071,5.312,5.312,0,0,1,2.018-2.085,5.919,5.919,0,0,1,3.049-.762,5.725,5.725,0,0,1,2.892.717,5.051,5.051,0,0,1,1.951,1.973,5.384,5.384,0,0,1,.717,2.758q0,.247-.022.516,0,.269-.022.56h-8.452a2.791,2.791,0,0,0,2.892,2.78,2.608,2.608,0,0,0,1.457-.381,2.479,2.479,0,0,0,.9-1.031h2.915a5.311,5.311,0,0,1-1.054,1.928,5.072,5.072,0,0,1-1.794,1.345A5.6,5.6,0,0,1,311.233,90.929Zm.022-9.327a3.019,3.019,0,0,0-1.861.605A2.71,2.71,0,0,0,308.363,84H313.9a2.421,2.421,0,0,0-.807-1.749A2.685,2.685,0,0,0,311.255,81.6Z" transform="translate(-166.858 -18.817)" fill="#2d2e3a"/><path d="M346.1,90.929a6.675,6.675,0,0,1-2.6-.471,4.584,4.584,0,0,1-1.794-1.345,3.862,3.862,0,0,1-.807-1.973h2.892a1.925,1.925,0,0,0,.717,1.121,2.53,2.53,0,0,0,1.547.448,2.019,2.019,0,0,0,1.368-.381,1.126,1.126,0,0,0,.448-.874.942.942,0,0,0-.628-.964,10.19,10.19,0,0,0-1.749-.516q-.717-.157-1.457-.381a7.485,7.485,0,0,1-1.368-.56,3.17,3.17,0,0,1-.987-.9,2.375,2.375,0,0,1-.381-1.368,3.164,3.164,0,0,1,1.166-2.489,5.891,5.891,0,0,1,6.457-.09,3.709,3.709,0,0,1,1.413,2.533h-2.713q-.247-1.233-1.861-1.233a2.166,2.166,0,0,0-1.255.314.942.942,0,0,0-.426.785q0,.493.65.785a9.553,9.553,0,0,0,1.726.538,20.447,20.447,0,0,1,2.13.605,3.464,3.464,0,0,1,1.57.964,2.575,2.575,0,0,1,.583,1.816,3.121,3.121,0,0,1-.538,1.861,3.719,3.719,0,0,1-1.614,1.3A6.06,6.06,0,0,1,346.1,90.929Z" transform="translate(-190.028 -18.817)" fill="#2d2e3a"/><path d="M377.553,90.929a6.675,6.675,0,0,1-2.6-.471,4.586,4.586,0,0,1-1.793-1.345,3.86,3.86,0,0,1-.807-1.973h2.892a1.925,1.925,0,0,0,.717,1.121,2.531,2.531,0,0,0,1.547.448,2.02,2.02,0,0,0,1.368-.381,1.126,1.126,0,0,0,.448-.874.943.943,0,0,0-.628-.964,10.172,10.172,0,0,0-1.748-.516q-.718-.157-1.458-.381a7.494,7.494,0,0,1-1.368-.56,3.169,3.169,0,0,1-.986-.9,2.374,2.374,0,0,1-.381-1.368,3.165,3.165,0,0,1,1.166-2.489,5.891,5.891,0,0,1,6.457-.09,3.71,3.71,0,0,1,1.412,2.533h-2.713q-.247-1.233-1.861-1.233a2.165,2.165,0,0,0-1.255.314.942.942,0,0,0-.426.785q0,.493.65.785a9.55,9.55,0,0,0,1.726.538,20.429,20.429,0,0,1,2.13.605,3.462,3.462,0,0,1,1.569.964,2.575,2.575,0,0,1,.583,1.816,3.123,3.123,0,0,1-.538,1.861,3.723,3.723,0,0,1-1.614,1.3A6.063,6.063,0,0,1,377.553,90.929Z" transform="translate(-210.601 -18.817)" fill="#2d2e3a"/></g></g></svg>